<svg width="152" height="142" viewBox="0 0 152 142" fill="none" xmlns="http://www.w3.org/2000/svg">
<g transform="translate(-24, -26)">
<path d="M23.9998 126C27.8237 154.468 53.8281 168 101.007 168C148.186 168 172.176 154.468 176 126H23.9998Z" fill="#C4C4C4"/>
<path d="M99.9998 144C141.973 144 176 135.941 176 126C176 116.059 141.973 108 99.9998 108C58.0262 108 23.9998 116.059 23.9998 126C23.9998 135.941 58.0262 144 99.9998 144Z" fill="#DCDCDC"/>
<path d="M99.9963 138.706C135.499 138.706 164.28 132.95 164.28 125.849C164.28 118.749 135.499 112.993 99.9963 112.993C64.4935 112.993 35.7128 118.749 35.7128 125.849C35.7128 132.95 64.4935 138.706 99.9963 138.706Z" fill="#C4C4C4"/>
<path d="M49.9999 76.0001C49.9999 48.3858 72.3857 26.0001 99.9999 26.0001C127.614 26.0001 150 48.3858 150 76.0001C150 103.614 127.614 126 99.9999 126C72.3857 126 49.9999 103.614 49.9999 76.0001Z" fill="#F7F7F7"/>
<circle cx="99.9999" cy="94.2058" r="7.27273" fill="#DCDCDC"/>
<path d="M84.0909 64.2059C85.3799 64.2059 86.6099 64.8868 87.547 66.1122C88.4847 67.3384 89.0909 69.0723 89.0909 71.0243C89.0908 72.976 88.4846 74.7092 87.547 75.9354C86.6099 77.1608 85.3799 77.8426 84.0909 77.8426C82.8019 77.8426 81.5719 77.1608 80.6348 75.9354C79.6972 74.7092 79.091 72.9761 79.0909 71.0243C79.0909 69.0723 79.6971 67.3384 80.6348 66.1122C81.5719 64.8868 82.8019 64.2059 84.0909 64.2059Z" fill="white" stroke="#DCDCDC" stroke-width="1.81818"/>
<path d="M115.909 64.2059C117.198 64.2059 118.428 64.8868 119.365 66.1122C120.303 67.3384 120.909 69.0723 120.909 71.0243C120.909 72.976 120.303 74.7092 119.365 75.9354C118.428 77.1608 117.198 77.8426 115.909 77.8426C114.62 77.8426 113.39 77.1608 112.453 75.9354C111.515 74.7092 110.909 72.9761 110.909 71.0243C110.909 69.0723 111.515 67.3384 112.453 66.1122C113.39 64.8868 114.62 64.2059 115.909 64.2059Z" fill="white" stroke="#DCDCDC" stroke-width="1.81818"/>
<path d="M109.66 56.4785H122.388" stroke="#DCDCDC" stroke-width="2.72727" stroke-linecap="round"/>
<path d="M77.8421 56.4785H90.5694" stroke="#DCDCDC" stroke-width="2.72727" stroke-linecap="round"/>
<path d="M140 53.2968L145.497 72.7566C146.059 74.747 145.502 76.8859 144.039 78.3484C141.808 80.579 138.192 80.579 135.961 78.3484C134.498 76.8859 133.941 74.747 134.503 72.7566L140 53.2968Z" fill="white"/>
</g>
</svg>
